<svg width="159" height="194" viewBox="0 0 159 194" fill="none" xmlns="http://www.w3.org/2000/svg">
<path d="M95.7654 87.9261C93.9831 89.1098 93.9774 91.7254 95.7546 92.9169L137.378 120.824C139.369 122.158 142.043 120.735 142.049 118.338L142.17 62.7068C142.175 60.3101 139.507 58.8752 137.51 60.2012L95.7654 87.9261Z" fill="#FEBF6D"/>
<path d="M90.7784 98.4728C89.0084 97.2707 86.585 98.255 86.1544 100.351L76.0684 149.438C75.586 151.786 77.9153 153.723 80.1359 152.821L131.679 131.888C133.899 130.986 134.218 127.973 132.235 126.627L90.7784 98.4728Z" fill="#FEBF6D"/>
<path d="M62.7942 17.2558C62.2696 15.1815 59.8043 14.3074 58.0902 15.588L17.9438 45.5808C16.0238 47.0152 16.478 50.0108 18.7369 50.8117L71.1704 69.4021C73.4293 70.203 75.669 68.1625 75.0813 65.839L62.7942 17.2558Z" fill="#FEBF6D"/>
<path d="M74.2759 124.826C74.7915 122.749 73.0296 120.816 70.9143 121.137L21.3685 128.655C18.999 129.015 17.9869 131.871 19.6012 133.642L57.0732 174.761C58.6875 176.532 61.6247 175.789 62.2022 173.463L74.2759 124.826Z" fill="#FEBF6D"/>
<path d="M87.2377 80.2295C87.6988 82.3188 90.1363 83.2677 91.8886 82.04L132.931 53.2854C134.894 51.9102 134.531 48.9021 132.298 48.0327L80.4556 27.852C78.2221 26.9826 75.9213 28.9539 76.4378 31.2942L87.2377 80.2295Z" fill="#FEBF6D"/>
</svg>
