<svg width="152" height="189" viewBox="0 0 152 189" fill="none" xmlns="http://www.w3.org/2000/svg">
<path d="M64.1415 98.4713C65.9116 97.2693 68.3349 98.2535 68.7655 100.349L78.8516 149.437C79.3339 151.784 77.0046 153.722 74.7841 152.82L23.2412 131.886C21.0207 130.985 20.702 127.972 22.6847 126.625L64.1415 98.4713Z" fill="#FEBF6D"/>
<path d="M89.9816 17.3071C90.5062 15.2328 92.9714 14.3587 94.6855 15.6393L134.832 45.6321C136.752 47.0665 136.298 50.0621 134.039 50.863L81.6053 69.4534C79.3464 70.2543 77.1068 68.2138 77.6944 65.8903L89.9816 17.3071Z" fill="#FEBF6D"/>
<path d="M77.5697 119.828C77.0542 117.752 78.816 115.818 80.9314 116.139L130.477 123.657C132.847 124.017 133.859 126.873 132.244 128.644L94.7725 169.763C93.1582 171.534 90.221 170.791 89.6435 168.465L77.5697 119.828Z" fill="#FEBF6D"/>
<path d="M67.6823 80.228C67.2212 82.3174 64.7837 83.2662 63.0314 82.0385L21.9891 53.2839C20.0262 51.9087 20.3888 48.9007 22.6222 48.0313L74.4645 27.8506C76.6979 26.9812 78.9987 28.9524 78.4822 31.2928L67.6823 80.228Z" fill="#FEBF6D"/>
<path d="M63.6491 92.1912C65.4314 91.0074 65.4371 88.3918 63.6599 87.2003L22.0364 59.2937C20.0457 57.959 17.371 59.3823 17.3658 61.7789L17.2445 117.41C17.2393 119.807 19.9077 121.242 21.9042 119.916L63.6491 92.1912Z" fill="#FEBF6D"/>
</svg>
